<svg width="356" height="121" viewBox="0 0 356 121" fill="none" xmlns="http://www.w3.org/2000/svg">
<path d="M44.0068 79.2231H82.0401V94.1057C82.0401 97.7588 79.0787 100.72 75.4256 100.72H50.6213C46.9682 100.72 44.0068 97.7588 44.0068 94.1057V79.2231Z" fill="white"/>
<path fill-rule="evenodd" clip-rule="evenodd" d="M53.9073 20.8316C44.8511 22.6751 36.8713 27.4794 31.0224 34.1895C31.0222 34.1894 31.0226 34.1897 31.0224 34.1895C24.6914 41.4527 20.8564 50.9487 20.8564 61.3405V62.7829C20.8568 62.7823 20.8571 62.7817 20.8574 62.781V64.297C20.8574 64.6227 20.8574 64.7855 20.8607 64.9232C21.0077 71.1002 25.9803 76.0728 32.1573 76.2198C32.295 76.2231 32.4579 76.2231 32.7835 76.2231H91.6124C91.938 76.2231 92.1009 76.2231 92.2386 76.2198C98.4156 76.0728 103.388 71.1002 103.535 64.9232C103.538 64.7855 103.538 64.6227 103.538 64.297V61.3405C103.538 38.5088 85.0297 20 62.1979 20C59.3588 20 56.5855 20.2864 53.9073 20.8316C53.9073 20.8315 53.9073 20.8316 53.9073 20.8316ZM53.7021 24.2597C52.4698 31.2365 46.3773 36.5361 39.047 36.5361C37.3161 36.5361 35.6543 36.2406 34.1092 35.6974C39.2382 30.0824 46.0284 26.0106 53.7021 24.2597ZM74.2085 25.2426C75.8144 31.7282 81.6735 36.5361 88.6554 36.5361C89.4138 36.5361 90.1589 36.4794 90.8867 36.3699C86.4702 31.3001 80.7318 27.4119 74.2085 25.2426ZM100.121 58.4191C97.501 56.1198 94.0671 54.7258 90.3076 54.7258C82.0882 54.7258 75.4251 61.389 75.4251 69.6084C75.4251 70.7452 75.5525 71.8522 75.7939 72.9159H91.6124C91.9571 72.9159 92.0714 72.9156 92.1599 72.9135C96.572 72.8085 100.124 69.2567 100.229 64.8445C100.231 64.7561 100.231 64.6417 100.231 64.297V61.3405C100.231 60.3576 100.194 59.3833 100.121 58.4191ZM48.5988 72.9159C48.8402 71.8522 48.9677 70.7452 48.9677 69.6084C48.9677 61.389 42.3045 54.7258 34.0851 54.7258C30.3272 54.7258 26.8946 56.1186 24.2754 58.4161C24.202 59.3813 24.1647 60.3565 24.1647 61.3405V64.297C24.1647 64.6417 24.1649 64.7561 24.167 64.8445C24.272 69.2567 27.8239 72.8085 32.236 72.9135C32.3245 72.9156 32.4388 72.9159 32.7835 72.9159H48.5988ZM77.0798 48.1115C77.0798 56.3309 70.4167 62.9941 62.1972 62.9941C53.9778 62.9941 47.3147 56.3309 47.3147 48.1115C47.3147 39.892 53.9778 33.2289 62.1972 33.2289C70.4167 33.2289 77.0798 39.892 77.0798 48.1115Z" fill="#6DD37F"/>
<path d="M128.254 82V33.2905H136.913V82H128.254Z" fill="white"/>
<path d="M158.683 82.8118C155.3 82.8118 152.301 82.0902 149.685 80.6469C147.069 79.2037 145.017 77.1741 143.529 74.5582C142.041 71.9424 141.296 68.9206 141.296 65.4929C141.296 62.0201 142.018 58.9306 143.461 56.2246C144.95 53.5185 146.979 51.4213 149.55 49.9329C152.166 48.3995 155.233 47.6327 158.751 47.6327C162.043 47.6327 164.952 48.3544 167.478 49.7976C170.003 51.2409 171.965 53.2253 173.364 55.751C174.807 58.2316 175.528 61.0053 175.528 64.0722C175.528 64.5683 175.506 65.087 175.461 65.6282C175.461 66.1694 175.438 66.7332 175.393 67.3195H149.888C150.069 69.9354 150.971 71.9875 152.594 73.4758C154.263 74.9641 156.27 75.7083 158.615 75.7083C160.374 75.7083 161.84 75.325 163.013 74.5582C164.23 73.7464 165.133 72.7091 165.719 71.4462H174.514C173.882 73.566 172.822 75.5054 171.334 77.2643C169.891 78.9782 168.087 80.3312 165.922 81.3234C163.802 82.3157 161.389 82.8118 158.683 82.8118ZM158.751 54.6686C156.631 54.6686 154.759 55.2774 153.136 56.4952C151.512 57.6678 150.475 59.4718 150.024 61.9073H166.734C166.598 59.6974 165.786 57.9384 164.298 56.6305C162.81 55.3225 160.961 54.6686 158.751 54.6686Z" fill="white"/>
<path d="M187.173 82L174.86 48.4446H183.926L192.45 73.8141L200.974 48.4446H210.039L197.659 82H187.173Z" fill="white"/>
<path d="M226.771 82.8118C223.388 82.8118 220.389 82.0902 217.773 80.6469C215.157 79.2037 213.105 77.1741 211.617 74.5582C210.129 71.9424 209.384 68.9206 209.384 65.4929C209.384 62.0201 210.106 58.9306 211.549 56.2246C213.038 53.5185 215.067 51.4213 217.638 49.9329C220.254 48.3995 223.321 47.6327 226.839 47.6327C230.131 47.6327 233.04 48.3544 235.566 49.7976C238.091 51.2409 240.053 53.2253 241.452 55.751C242.895 58.2316 243.616 61.0053 243.616 64.0722C243.616 64.5683 243.594 65.087 243.549 65.6282C243.549 66.1694 243.526 66.7332 243.481 67.3195H217.976C218.157 69.9354 219.059 71.9875 220.682 73.4758C222.351 74.9641 224.358 75.7083 226.703 75.7083C228.462 75.7083 229.928 75.325 231.101 74.5582C232.319 73.7464 233.221 72.7091 233.807 71.4462H242.602C241.97 73.566 240.91 75.5054 239.422 77.2643C237.979 78.9782 236.175 80.3312 234.01 81.3234C231.89 82.3157 229.477 82.8118 226.771 82.8118ZM226.839 54.6686C224.719 54.6686 222.847 55.2774 221.224 56.4952C219.6 57.6678 218.563 59.4718 218.112 61.9073H234.822C234.686 59.6974 233.875 57.9384 232.386 56.6305C230.898 55.3225 229.049 54.6686 226.839 54.6686Z" fill="white"/>
<path d="M247.517 82V33.2905H256.176V82H247.517Z" fill="white"/>
<path d="M274.225 82.8118C270.031 82.8118 266.784 81.5038 264.483 78.888C262.228 76.2721 261.101 72.4385 261.101 67.3871V48.4446H269.693V66.5753C269.693 69.4618 270.279 71.6718 271.451 73.2052C272.624 74.7386 274.473 75.5054 276.999 75.5054C279.389 75.5054 281.351 74.6484 282.885 72.9346C284.463 71.2207 285.252 68.8304 285.252 65.7635V48.4446H293.912V82H286.267L285.591 76.3172C284.553 78.3017 283.043 79.8802 281.058 81.0528C279.119 82.2255 276.841 82.8118 274.225 82.8118Z" fill="white"/>
<path d="M299.419 96.8834V48.4446H307.131L308.078 53.2479C309.161 51.7595 310.581 50.4516 312.34 49.324C314.144 48.1965 316.467 47.6327 319.308 47.6327C322.465 47.6327 325.284 48.3995 327.765 49.9329C330.245 51.4664 332.207 53.5636 333.651 56.2246C335.094 58.8855 335.815 61.9073 335.815 65.2899C335.815 68.6725 335.094 71.6943 333.651 74.3553C332.207 76.9712 330.245 79.0458 327.765 80.5793C325.284 82.0676 322.465 82.8118 319.308 82.8118C316.783 82.8118 314.573 82.3382 312.678 81.3911C310.784 80.444 309.251 79.1135 308.078 77.3996V96.8834H299.419ZM317.482 75.2348C320.233 75.2348 322.511 74.3102 324.315 72.461C326.119 70.6119 327.021 68.2215 327.021 65.2899C327.021 62.3583 326.119 59.9454 324.315 58.0512C322.511 56.1569 320.233 55.2098 317.482 55.2098C314.686 55.2098 312.385 56.1569 310.581 58.0512C308.822 59.9003 307.943 62.2907 307.943 65.2223C307.943 68.1539 308.822 70.5668 310.581 72.461C312.385 74.3102 314.686 75.2348 317.482 75.2348Z" fill="white"/>
</svg>
